<svg version="1.1" viewBox="0.0 0.0 480.0 480.0" fill="none" stroke="none" stroke-linecap="square" stroke-miterlimit="10" xmlns:xlink="http://www.w3.org/1999/xlink" xmlns="http://www.w3.org/2000/svg"><clipPath id="g8b6b25dd82_0_10.0"><path d="m0 0l480.0 0l0 480.0l-480.0 0l0 -480.0z" clip-rule="nonzero"/></clipPath><g clip-path="url(#g8b6b25dd82_0_10.0)"><path fill="#ffffff" d="m0 0l480.0 0l0 480.0l-480.0 0z" fill-rule="evenodd"/><path fill="#000000" fill-opacity="0.0" d="m8.001198 147.19933l132.06299 -0.44093323" fill-rule="evenodd"/><path stroke="#595959" stroke-width="16.0" stroke-linejoin="round" stroke-linecap="butt" d="m8.001198 147.19933l36.063534 -0.120407104" fill-rule="evenodd"/><path fill="#595959" stroke="#595959" stroke-width="16.0" stroke-linecap="butt" d="m44.15297 173.50648l72.52092 -26.669998l-72.6974 -26.185143z" fill-rule="evenodd"/><path fill="#000000" fill-opacity="0.0" d="m147.20114 286.4l0.5669403 -132.06299" fill-rule="evenodd"/><path stroke="#595959" stroke-width="16.0" stroke-linejoin="round" stroke-linecap="butt" d="m147.20114 286.4l0.15481567 -36.063873" fill-rule="evenodd"/><path fill="#595959" stroke="#595959" stroke-width="16.0" stroke-linecap="butt" d="m173.78343 250.44957l-26.115768 -72.72235l-26.739174 72.49545z" fill-rule="evenodd"/><path fill="#000000" fill-opacity="0.0" d="m286.40118 147.20013l-132.06297 -0.56692505" fill-rule="evenodd"/><path stroke="#595959" stroke-width="16.0" stroke-linejoin="round" stroke-linecap="butt" d="m286.4012 147.20013l-36.063904 -0.15480042" fill-rule="evenodd"/><path fill="#595959" stroke="#595959" stroke-width="16.0" stroke-linecap="butt" d="m250.45076 120.61785l-72.722336 26.115776l72.49544 26.739166z" fill-rule="evenodd"/><path fill="#000000" fill-opacity="0.0" d="m147.20114 8.0l0.15748596 132.06299" fill-rule="evenodd"/><path stroke="#595959" stroke-width="16.0" stroke-linejoin="round" stroke-linecap="butt" d="m147.20114 8.0l0.042999268 36.063065" fill-rule="evenodd"/><path fill="#595959" stroke="#595959" stroke-width="16.0" stroke-linecap="butt" d="m120.81645 44.094578l26.514282 72.57799l26.34111 -72.64102z" fill-rule="evenodd"/><path fill="#000000" fill-opacity="0.0" d="m193.59962 332.80038l132.063 -0.4409485" fill-rule="evenodd"/><path stroke="#595959" stroke-width="16.0" stroke-linejoin="round" stroke-linecap="butt" d="m193.59961 332.80038l36.063538 -0.12042236" fill-rule="evenodd"/><path fill="#595959" stroke="#595959" stroke-width="16.0" stroke-linecap="butt" d="m229.75139 359.10754l72.52092 -26.670013l-72.6974 -26.18512z" fill-rule="evenodd"/><path fill="#000000" fill-opacity="0.0" d="m332.79956 472.00104l0.56695557 -132.06299" fill-rule="evenodd"/><path stroke="#595959" stroke-width="16.0" stroke-linejoin="round" stroke-linecap="butt" d="m332.7996 472.00107l0.15481567 -36.063904" fill-rule="evenodd"/><path fill="#595959" stroke="#595959" stroke-width="16.0" stroke-linecap="butt" d="m359.38187 436.05063l-26.115753 -72.72235l-26.739197 72.49545z" fill-rule="evenodd"/><path fill="#000000" fill-opacity="0.0" d="m471.99963 332.80118l-132.06299 -0.56692505" fill-rule="evenodd"/><path stroke="#595959" stroke-width="16.0" stroke-linejoin="round" stroke-linecap="butt" d="m471.99963 332.80118l-36.063904 -0.15481567" fill-rule="evenodd"/><path fill="#595959" stroke="#595959" stroke-width="16.0" stroke-linecap="butt" d="m436.0492 306.2189l-72.72232 26.115753l72.49542 26.739197z" fill-rule="evenodd"/><path fill="#000000" fill-opacity="0.0" d="m332.79956 193.60104l0.15750122 132.06299" fill-rule="evenodd"/><path stroke="#595959" stroke-width="16.0" stroke-linejoin="round" stroke-linecap="butt" d="m332.7996 193.60104l0.042999268 36.06308" fill-rule="evenodd"/><path fill="#595959" stroke="#595959" stroke-width="16.0" stroke-linecap="butt" d="m306.4149 229.69563l26.514282 72.57799l26.341125 -72.64102z" fill-rule="evenodd"/></g></svg>