<svg version="1.1" viewBox="0.0 200.0 2880.0 1136.0" fill="none" stroke="none" stroke-linecap="square" stroke-miterlimit="10" xmlns:xlink="http://www.w3.org/1999/xlink" xmlns="http://www.w3.org/2000/svg"><clipPath id="ga2094819d1_1_0.0"><path d="m0 0l2880.0 0l0 1536.0l-2880.0 0l0 -1536.0z" clip-rule="nonzero"/></clipPath><g clip-path="url(#ga2094819d1_1_0.0)"><path fill="#ffffff" d="m0 0l2880.0 0l0 1536.0l-2880.0 0z" fill-rule="evenodd"/><path fill="#eeeeee" d="m282.19724 486.4248l127.35889 73.211l0 142.62634l-127.35889 73.211l-127.35889 -73.211l0 -142.62634z" fill-rule="evenodd"/><path stroke="#595959" stroke-width="1.0" stroke-linejoin="round" stroke-linecap="butt" d="m282.19724 486.4248l127.35889 73.211l0 142.62634l-127.35889 73.211l-127.35889 -73.211l0 -142.62634z" fill-rule="evenodd"/><path fill="#eeeeee" d="m536.91516 486.4248l127.35889 73.211l0 142.62634l-127.35889 73.211l-127.35892 -73.211l0 -142.62634z" fill-rule="evenodd"/><path stroke="#595959" stroke-width="1.0" stroke-linejoin="round" stroke-linecap="butt" d="m536.91516 486.4248l127.35889 73.211l0 142.62634l-127.35889 73.211l-127.35892 -73.211l0 -142.62634z" fill-rule="evenodd"/><path fill="#eeeeee" d="m791.63306 486.4248l127.35889 73.211l0 142.62634l-127.35889 73.211l-127.35889 -73.211l0 -142.62634z" fill-rule="evenodd"/><path stroke="#595959" stroke-width="1.0" stroke-linejoin="round" stroke-linecap="butt" d="m791.63306 486.4248l127.35889 73.211l0 142.62634l-127.35889 73.211l-127.35889 -73.211l0 -142.62634z" fill-rule="evenodd"/><path fill="#eeeeee" d="m409.55618 702.3336l127.35892 73.211l0 142.62634l-127.35892 73.211l-127.35889 -73.211l0 -142.62634z" fill-rule="evenodd"/><path stroke="#595959" stroke-width="1.0" stroke-linejoin="round" stroke-linecap="butt" d="m409.55618 702.3336l127.35892 73.211l0 142.62634l-127.35892 73.211l-127.35889 -73.211l0 -142.62634z" fill-rule="evenodd"/><path fill="#eeeeee" d="m664.2741 702.3336l127.35889 73.211l0 142.62634l-127.35889 73.211l-127.35889 -73.211l0 -142.62634z" fill-rule="evenodd"/><path stroke="#595959" stroke-width="1.0" stroke-linejoin="round" stroke-linecap="butt" d="m664.2741 702.3336l127.35889 73.211l0 142.62634l-127.35889 73.211l-127.35889 -73.211l0 -142.62634z" fill-rule="evenodd"/><path fill="#eeeeee" d="m409.55618 270.51907l127.35892 73.211l0 142.62631l-127.35892 73.211l-127.35889 -73.211l0 -142.62631z" fill-rule="evenodd"/><path stroke="#595959" stroke-width="1.0" stroke-linejoin="round" stroke-linecap="butt" d="m409.55618 270.51907l127.35892 73.211l0 142.62631l-127.35892 73.211l-127.35889 -73.211l0 -142.62631z" fill-rule="evenodd"/><path fill="#eeeeee" d="m664.2741 270.51907l127.35889 73.211l0 142.62631l-127.35889 73.211l-127.35889 -73.211l0 -142.62631z" fill-rule="evenodd"/><path stroke="#595959" stroke-width="1.0" stroke-linejoin="round" stroke-linecap="butt" d="m664.2741 270.51907l127.35889 73.211l0 142.62631l-127.35889 73.211l-127.35889 -73.211l0 -142.62631z" fill-rule="evenodd"/><path fill="#000000" fill-opacity="0.0" d="m354.9346 359.7087l109.243164 0l0 105.0387l-109.243164 0z" fill-rule="evenodd"/><path fill="#000000" d="m382.98697 418.09558l17.84375 0l0 5.203125l-17.84375 0l0 -5.203125zm28.950958 -23.734375l11.390625 -5.5625l1.125 0l0 39.5q0 3.9375 0.328125 4.90625q0.328125 0.96875 1.359375 1.484375q1.046875 0.515625 4.21875 0.578125l0 1.28125l-17.59375 0l0 -1.28125q3.3125 -0.0625 4.28125 -0.5625q0.96875 -0.5 1.34375 -1.34375q0.375 -0.84375 0.375 -5.0625l0 -25.25q0 -5.109375 -0.34375 -6.546875q-0.234375 -1.109375 -0.875 -1.625q-0.640625 -0.515625 -1.546875 -0.515625q-1.265625 0 -3.546875 1.0625l-0.515625 -1.0625z" fill-rule="nonzero"/><path fill="#000000" fill-opacity="0.0" d="m609.6525 359.7087l109.243164 0l0 105.0387l-109.243164 0z" fill-rule="evenodd"/><path fill="#000000" d="m654.8913 394.3612l11.390625 -5.5625l1.125 0l0 39.5q0 3.9375 0.328125 4.90625q0.328125 0.96875 1.359375 1.484375q1.046875 0.515625 4.21875 0.578125l0 1.28125l-17.59375 0l0 -1.28125q3.3125 -0.0625 4.28125 -0.5625q0.96875 -0.5 1.34375 -1.34375q0.375 -0.84375 0.375 -5.0625l0 -25.25q0 -5.109375 -0.34375 -6.546875q-0.234375 -1.109375 -0.875 -1.625q-0.640625 -0.515625 -1.546875 -0.515625q-1.265625 0 -3.546875 1.0625l-0.515625 -1.0625z" fill-rule="nonzero"/><path fill="#000000" fill-opacity="0.0" d="m227.57565 575.61597l109.243164 0l0 105.0387l-109.243164 0z" fill-rule="evenodd"/><path fill="#000000" d="m255.628 634.00287l17.843765 0l0 5.203125l-17.843765 0l0 -5.203125zm53.06035 9.453125l-3.265625 9.0l-27.609375 0l0 -1.28125q12.1875 -11.109375 17.140625 -18.140625q4.96875 -7.046875 4.96875 -12.875q0 -4.453125 -2.71875 -7.3125q-2.71875 -2.859375 -6.515625 -2.859375q-3.453125 0 -6.203125 2.015625q-2.734375 2.015625 -4.046875 5.921875l-1.28125 0q0.859375 -6.390625 4.4375 -9.796875q3.578125 -3.421875 8.921875 -3.421875q5.6875 0 9.5 3.65625q3.8125 3.65625 3.8125 8.625q0 3.5625 -1.65625 7.109375q-2.546875 5.59375 -8.28125 11.828125q-8.59375 9.390625 -10.734375 11.328125l12.21875 0q3.734375 0 5.234375 -0.28125q1.5 -0.28125 2.703125 -1.125q1.203125 -0.84375 2.109375 -2.390625l1.265625 0z" fill-rule="nonzero"/><path fill="#000000" fill-opacity="0.0" d="m737.0115 591.6646l109.243164 0l0 105.038635l-109.243164 0z" fill-rule="evenodd"/><path fill="#000000" d="m806.3596 659.5046l-3.265625 9.0l-27.609375 0l0 -1.28125q12.1875 -11.109375 17.140625 -18.140625q4.96875 -7.046875 4.96875 -12.875q0 -4.453125 -2.71875 -7.3125q-2.71875 -2.859375 -6.515625 -2.859375q-3.453125 0 -6.203125 2.015625q-2.734375 2.015625 -4.046875 5.921875l-1.28125 0q0.859375 -6.390625 4.4375 -9.796875q3.578125 -3.421875 8.921875 -3.421875q5.6875 0 9.5 3.65625q3.8125 3.65625 3.8125 8.625q0 3.5625 -1.65625 7.109375q-2.546875 5.59375 -8.28125 11.828125q-8.59375 9.390625 -10.734375 11.328125l12.21875 0q3.734375 0 5.234375 -0.28125q1.5 -0.28125 2.703125 -1.125q1.203125 -0.84375 2.109375 -2.390625l1.265625 0z" fill-rule="nonzero"/><path fill="#000000" fill-opacity="0.0" d="m354.9346 801.7694l109.243164 0l0 105.038635l-109.243164 0z" fill-rule="evenodd"/><path fill="#000000" d="m382.98697 860.15625l17.84375 0l0 5.203125l-17.84375 0l0 -5.203125zm28.950958 -23.734375l11.390625 -5.5625l1.125 0l0 39.5q0 3.9375 0.328125 4.90625q0.328125 0.96875 1.359375 1.484375q1.046875 0.515625 4.21875 0.578125l0 1.28125l-17.59375 0l0 -1.28125q3.3125 -0.0625 4.28125 -0.5625q0.96875 -0.5 1.34375 -1.34375q0.375 -0.84375 0.375 -5.0625l0 -25.25q0 -5.109375 -0.34375 -6.546875q-0.234375 -1.109375 -0.875 -1.625q-0.640625 -0.515625 -1.546875 -0.515625q-1.265625 0 -3.546875 1.0625l-0.515625 -1.0625z" fill-rule="nonzero"/><path fill="#000000" fill-opacity="0.0" d="m623.38715 775.47314l109.243164 0l0 105.0387l-109.243164 0z" fill-rule="evenodd"/><path fill="#000000" d="m668.6259 810.1257l11.390625 -5.5625l1.125 0l0 39.5q0 3.9375 0.328125 4.90625q0.328125 0.96875 1.359375 1.484375q1.046875 0.515625 4.21875 0.578125l0 1.28125l-17.59375 0l0 -1.28125q3.3125 -0.0625 4.28125 -0.5625q0.96875 -0.5 1.34375 -1.34375q0.375 -0.84375 0.375 -5.0625l0 -25.25q0 -5.109375 -0.34375 -6.546875q-0.234375 -1.109375 -0.875 -1.625q-0.640625 -0.515625 -1.546875 -0.515625q-1.265625 0 -3.546875 1.0625l-0.515625 -1.0625z" fill-rule="nonzero"/><path fill="#000000" fill-opacity="0.0" d="m482.29358 575.61597l109.243164 0l0 105.0387l-109.243164 0z" fill-rule="evenodd"/><path fill="#000000" d="m521.798 629.3466q0 -8.015625 2.421875 -13.78125q2.421875 -5.78125 6.421875 -8.609375q3.09375 -2.25 6.40625 -2.25q5.390625 0 9.671875 5.484375q5.34375 6.796875 5.34375 18.421875q0 8.140625 -2.34375 13.84375q-2.34375 5.6875 -5.984375 8.265625q-3.640625 2.5625 -7.03125 2.5625q-6.6875 0 -11.140625 -7.90625q-3.765625 -6.65625 -3.765625 -16.03125zm6.765625 0.859375q0 9.65625 2.390625 15.765625q1.953125 5.140625 5.859375 5.140625q1.859375 0 3.859375 -1.671875q2.0 -1.671875 3.03125 -5.609375q1.59375 -5.9375 1.59375 -16.734375q0 -8.0 -1.65625 -13.34375q-1.234375 -3.96875 -3.203125 -5.625q-1.421875 -1.140625 -3.421875 -1.140625q-2.34375 0 -4.171875 2.109375q-2.484375 2.859375 -3.390625 9.0q-0.890625 6.140625 -0.890625 12.109375z" fill-rule="nonzero"/><path fill="#eeeeee" d="m1185.2999 486.42328l127.35889 73.21106l0 142.62628l-127.35889 73.211l-127.35889 -73.211l0 -142.62628z" fill-rule="evenodd"/><path stroke="#595959" stroke-width="1.0" stroke-linejoin="round" stroke-linecap="butt" d="m1185.2999 486.42328l127.35889 73.21106l0 142.62628l-127.35889 73.211l-127.35889 -73.211l0 -142.62628z" fill-rule="evenodd"/><path fill="#eeeeee" d="m1440.0178 486.42328l127.35889 73.21106l0 142.62628l-127.35889 73.211l-127.35889 -73.211l0 -142.62628z" fill-rule="evenodd"/><path stroke="#595959" stroke-width="1.0" stroke-linejoin="round" stroke-linecap="butt" d="m1440.0178 486.42328l127.35889 73.21106l0 142.62628l-127.35889 73.211l-127.35889 -73.211l0 -142.62628z" fill-rule="evenodd"/><path fill="#eeeeee" d="m1694.7357 486.42328l127.35889 73.21106l0 142.62628l-127.35889 73.211l-127.35889 -73.211l0 -142.62628z" fill-rule="evenodd"/><path stroke="#595959" stroke-width="1.0" stroke-linejoin="round" stroke-linecap="butt" d="m1694.7357 486.42328l127.35889 73.21106l0 142.62628l-127.35889 73.211l-127.35889 -73.211l0 -142.62628z" fill-rule="evenodd"/><path fill="#eeeeee" d="m1312.6588 702.3321l127.35889 73.211l0 142.62634l-127.35889 73.211l-127.35889 -73.211l0 -142.62634z" fill-rule="evenodd"/><path stroke="#595959" stroke-width="1.0" stroke-linejoin="round" stroke-linecap="butt" d="m1312.6588 702.3321l127.35889 73.211l0 142.62634l-127.35889 73.211l-127.35889 -73.211l0 -142.62634z" fill-rule="evenodd"/><path fill="#eeeeee" d="m1567.3767 702.3321l127.35889 73.211l0 142.62634l-127.35889 73.211l-127.35889 -73.211l0 -142.62634z" fill-rule="evenodd"/><path stroke="#595959" stroke-width="1.0" stroke-linejoin="round" stroke-linecap="butt" d="m1567.3767 702.3321l127.35889 73.211l0 142.62634l-127.35889 73.211l-127.35889 -73.211l0 -142.62634z" fill-rule="evenodd"/><path fill="#eeeeee" d="m1312.6588 270.51755l127.35889 73.211l0 142.62631l-127.35889 73.211l-127.35889 -73.211l0 -142.62631z" fill-rule="evenodd"/><path stroke="#595959" stroke-width="1.0" stroke-linejoin="round" stroke-linecap="butt" d="m1312.6588 270.51755l127.35889 73.211l0 142.62631l-127.35889 73.211l-127.35889 -73.211l0 -142.62631z" fill-rule="evenodd"/><path fill="#eeeeee" d="m1567.3767 270.51755l127.35889 73.211l0 142.62631l-127.35889 73.211l-127.35889 -73.211l0 -142.62631z" fill-rule="evenodd"/><path stroke="#595959" stroke-width="1.0" stroke-linejoin="round" stroke-linecap="butt" d="m1567.3767 270.51755l127.35889 73.211l0 142.62631l-127.35889 73.211l-127.35889 -73.211l0 -142.62631z" fill-rule="evenodd"/><path fill="#000000" fill-opacity="0.0" d="m1258.0372 359.70718l109.243164 0l0 105.0387l-109.243164 0z" fill-rule="evenodd"/><path fill="#000000" d="m1286.0896 418.09406l17.84375 0l0 5.203125l-17.84375 0l0 -5.203125zm53.060303 9.453125l-3.265625 9.0l-27.609375 0l0 -1.28125q12.1875 -11.109375 17.140625 -18.140625q4.96875 -7.046875 4.96875 -12.875q0 -4.453125 -2.71875 -7.3125q-2.71875 -2.859375 -6.515625 -2.859375q-3.453125 0 -6.203125 2.015625q-2.734375 2.015625 -4.046875 5.921875l-1.28125 0q0.859375 -6.390625 4.4375 -9.796875q3.578125 -3.421875 8.921875 -3.421875q5.6875 0 9.5 3.65625q3.8125 3.65625 3.8125 8.625q0 3.5625 -1.65625 7.109375q-2.546875 5.59375 -8.28125 11.828125q-8.59375 9.390625 -10.734375 11.328125l12.21875 0q3.734375 0 5.234375 -0.28125q1.5 -0.28125 2.703125 -1.125q1.203125 -0.84375 2.109375 -2.390625l1.265625 0z" fill-rule="nonzero"/><path fill="#000000" fill-opacity="0.0" d="m1512.7551 359.70718l109.243164 0l0 105.0387l-109.243164 0z" fill-rule="evenodd"/><path fill="#000000" d="m1540.8075 418.09406l17.84375 0l0 5.203125l-17.84375 0l0 -5.203125zm53.060425 9.453125l-3.265625 9.0l-27.609375 0l0 -1.28125q12.1875 -11.109375 17.140625 -18.140625q4.96875 -7.046875 4.96875 -12.875q0 -4.453125 -2.71875 -7.3125q-2.71875 -2.859375 -6.515625 -2.859375q-3.453125 0 -6.203125 2.015625q-2.734375 2.015625 -4.046875 5.921875l-1.28125 0q0.859375 -6.390625 4.4375 -9.796875q3.578125 -3.421875 8.921875 -3.421875q5.6875 0 9.5 3.65625q3.8125 3.65625 3.8125 8.625q0 3.5625 -1.65625 7.109375q-2.546875 5.59375 -8.28125 11.828125q-8.59375 9.390625 -10.734375 11.328125l12.21875 0q3.734375 0 5.234375 -0.28125q1.5 -0.28125 2.703125 -1.125q1.203125 -0.84375 2.109375 -2.390625l1.265625 0z" fill-rule="nonzero"/><path fill="#000000" fill-opacity="0.0" d="m1130.6783 575.61444l109.243164 0l0 105.0387l-109.243164 0z" fill-rule="evenodd"/><path fill="#000000" d="m1170.1827 629.3451q0 -8.015625 2.421875 -13.78125q2.421875 -5.78125 6.421875 -8.609375q3.09375 -2.25 6.40625 -2.25q5.390625 0 9.671875 5.484375q5.34375 6.796875 5.34375 18.421875q0 8.140625 -2.34375 13.84375q-2.34375 5.6875 -5.984375 8.265625q-3.640625 2.5625 -7.03125 2.5625q-6.6875 0 -11.140625 -7.90625q-3.765625 -6.65625 -3.765625 -16.03125zm6.765625 0.859375q0 9.65625 2.390625 15.765625q1.953125 5.140625 5.859375 5.140625q1.859375 0 3.859375 -1.671875q2.0 -1.671875 3.03125 -5.609375q1.59375 -5.9375 1.59375 -16.734375q0 -8.0 -1.65625 -13.34375q-1.234375 -3.96875 -3.203125 -5.625q-1.421875 -1.140625 -3.421875 -1.140625q-2.34375 0 -4.171875 2.109375q-2.484375 2.859375 -3.390625 9.0q-0.890625 6.140625 -0.890625 12.109375z" fill-rule="nonzero"/><path fill="#000000" fill-opacity="0.0" d="m1640.1141 591.6631l109.243164 0l0 105.038635l-109.243164 0z" fill-rule="evenodd"/><path fill="#000000" d="m1679.6185 645.3937q0 -8.015625 2.421875 -13.78125q2.421875 -5.78125 6.421875 -8.609375q3.09375 -2.25 6.40625 -2.25q5.390625 0 9.671875 5.484375q5.34375 6.796875 5.34375 18.421875q0 8.140625 -2.34375 13.84375q-2.34375 5.6875 -5.984375 8.265625q-3.640625 2.5625 -7.03125 2.5625q-6.6875 0 -11.140625 -7.90625q-3.765625 -6.65625 -3.765625 -16.03125zm6.765625 0.859375q0 9.65625 2.390625 15.765625q1.953125 5.140625 5.859375 5.140625q1.859375 0 3.859375 -1.671875q2.0 -1.671875 3.03125 -5.609375q1.59375 -5.9375 1.59375 -16.734375q0 -8.0 -1.65625 -13.34375q-1.234375 -3.96875 -3.203125 -5.625q-1.421875 -1.140625 -3.421875 -1.140625q-2.34375 0 -4.171875 2.109375q-2.484375 2.859375 -3.390625 9.0q-0.890625 6.140625 -0.890625 12.109375z" fill-rule="nonzero"/><path fill="#000000" fill-opacity="0.0" d="m1258.0372 801.7679l109.243164 0l0 105.0387l-109.243164 0z" fill-rule="evenodd"/><path fill="#000000" d="m1327.3854 869.60785l-3.265625 9.0l-27.609375 0l0 -1.28125q12.1875 -11.109375 17.140625 -18.140625q4.96875 -7.046875 4.96875 -12.875q0 -4.453125 -2.71875 -7.3125q-2.71875 -2.859375 -6.515625 -2.859375q-3.453125 0 -6.203125 2.015625q-2.734375 2.015625 -4.046875 5.921875l-1.28125 0q0.859375 -6.390625 4.4375 -9.796875q3.578125 -3.421875 8.921875 -3.421875q5.6875 0 9.5 3.65625q3.8125 3.65625 3.8125 8.625q0 3.5625 -1.65625 7.109375q-2.546875 5.59375 -8.28125 11.828125q-8.59375 9.390625 -10.734375 11.328125l12.21875 0q3.734375 0 5.234375 -0.28125q1.5 -0.28125 2.703125 -1.125q1.203125 -0.84375 2.109375 -2.390625l1.265625 0z" fill-rule="nonzero"/><path fill="#000000" fill-opacity="0.0" d="m1526.4897 775.4716l109.243164 0l0 105.0387l-109.243164 0z" fill-rule="evenodd"/><path fill="#000000" d="m1595.8379 843.31165l-3.265625 9.0l-27.609375 0l0 -1.28125q12.1875 -11.109375 17.140625 -18.140625q4.96875 -7.046875 4.96875 -12.875q0 -4.453125 -2.71875 -7.3125q-2.71875 -2.859375 -6.515625 -2.859375q-3.453125 0 -6.203125 2.015625q-2.734375 2.015625 -4.046875 5.921875l-1.28125 0q0.859375 -6.390625 4.4375 -9.796875q3.578125 -3.421875 8.921875 -3.421875q5.6875 0 9.5 3.65625q3.8125 3.65625 3.8125 8.625q0 3.5625 -1.65625 7.109375q-2.546875 5.59375 -8.28125 11.828125q-8.59375 9.390625 -10.734375 11.328125l12.21875 0q3.734375 0 5.234375 -0.28125q1.5 -0.28125 2.703125 -1.125q1.203125 -0.84375 2.109375 -2.390625l1.265625 0z" fill-rule="nonzero"/><path fill="#000000" fill-opacity="0.0" d="m1385.3962 575.61444l109.243164 0l0 105.0387l-109.243164 0z" fill-rule="evenodd"/><path fill="#000000" d="m1424.9006 629.3451q0 -8.015625 2.421875 -13.78125q2.421875 -5.78125 6.421875 -8.609375q3.09375 -2.25 6.40625 -2.25q5.390625 0 9.671875 5.484375q5.34375 6.796875 5.34375 18.421875q0 8.140625 -2.34375 13.84375q-2.34375 5.6875 -5.984375 8.265625q-3.640625 2.5625 -7.03125 2.5625q-6.6875 0 -11.140625 -7.90625q-3.765625 -6.65625 -3.765625 -16.03125zm6.765625 0.859375q0 9.65625 2.390625 15.765625q1.953125 5.140625 5.859375 5.140625q1.859375 0 3.859375 -1.671875q2.0 -1.671875 3.03125 -5.609375q1.59375 -5.9375 1.59375 -16.734375q0 -8.0 -1.65625 -13.34375q-1.234375 -3.96875 -3.203125 -5.625q-1.421875 -1.140625 -3.421875 -1.140625q-2.34375 0 -4.171875 2.109375q-2.484375 2.859375 -3.390625 9.0q-0.890625 6.140625 -0.890625 12.109375z" fill-rule="nonzero"/><path fill="#eeeeee" d="m2088.3687 486.42328l127.35889 73.21106l0 142.62628l-127.35889 73.211l-127.35901 -73.211l0 -142.62628z" fill-rule="evenodd"/><path stroke="#595959" stroke-width="1.0" stroke-linejoin="round" stroke-linecap="butt" d="m2088.3687 486.42328l127.35889 73.21106l0 142.62628l-127.35889 73.211l-127.35901 -73.211l0 -142.62628z" fill-rule="evenodd"/><path fill="#eeeeee" d="m2343.0864 486.42328l127.35889 73.21106l0 142.62628l-127.35889 73.211l-127.35889 -73.211l0 -142.62628z" fill-rule="evenodd"/><path stroke="#595959" stroke-width="1.0" stroke-linejoin="round" stroke-linecap="butt" d="m2343.0864 486.42328l127.35889 73.21106l0 142.62628l-127.35889 73.211l-127.35889 -73.211l0 -142.62628z" fill-rule="evenodd"/><path fill="#eeeeee" d="m2597.8044 486.42328l127.35889 73.21106l0 142.62628l-127.35889 73.211l-127.35889 -73.211l0 -142.62628z" fill-rule="evenodd"/><path stroke="#595959" stroke-width="1.0" stroke-linejoin="round" stroke-linecap="butt" d="m2597.8044 486.42328l127.35889 73.21106l0 142.62628l-127.35889 73.211l-127.35889 -73.211l0 -142.62628z" fill-rule="evenodd"/><path fill="#eeeeee" d="m2215.7275 702.3321l127.35889 73.211l0 142.62634l-127.35889 73.211l-127.35889 -73.211l0 -142.62634z" fill-rule="evenodd"/><path stroke="#595959" stroke-width="1.0" stroke-linejoin="round" stroke-linecap="butt" d="m2215.7275 702.3321l127.35889 73.211l0 142.62634l-127.35889 73.211l-127.35889 -73.211l0 -142.62634z" fill-rule="evenodd"/><path fill="#eeeeee" d="m2470.4453 702.3321l127.35889 73.211l0 142.62634l-127.35889 73.211l-127.35889 -73.211l0 -142.62634z" fill-rule="evenodd"/><path stroke="#595959" stroke-width="1.0" stroke-linejoin="round" stroke-linecap="butt" d="m2470.4453 702.3321l127.35889 73.211l0 142.62634l-127.35889 73.211l-127.35889 -73.211l0 -142.62634z" fill-rule="evenodd"/><path fill="#eeeeee" d="m2215.7275 270.51755l127.35889 73.211l0 142.62631l-127.35889 73.211l-127.35889 -73.211l0 -142.62631z" fill-rule="evenodd"/><path stroke="#595959" stroke-width="1.0" stroke-linejoin="round" stroke-linecap="butt" d="m2215.7275 270.51755l127.35889 73.211l0 142.62631l-127.35889 73.211l-127.35889 -73.211l0 -142.62631z" fill-rule="evenodd"/><path fill="#eeeeee" d="m2470.4453 270.51755l127.35889 73.211l0 142.62631l-127.35889 73.211l-127.35889 -73.211l0 -142.62631z" fill-rule="evenodd"/><path stroke="#595959" stroke-width="1.0" stroke-linejoin="round" stroke-linecap="butt" d="m2470.4453 270.51755l127.35889 73.211l0 142.62631l-127.35889 73.211l-127.35889 -73.211l0 -142.62631z" fill-rule="evenodd"/><path fill="#000000" fill-opacity="0.0" d="m2161.106 359.70718l109.243164 0l0 105.0387l-109.243164 0z" fill-rule="evenodd"/><path fill="#000000" d="m2230.454 427.54718l-3.265625 9.0l-27.609375 0l0 -1.28125q12.1875 -11.109375 17.140625 -18.140625q4.96875 -7.046875 4.96875 -12.875q0 -4.453125 -2.71875 -7.3125q-2.71875 -2.859375 -6.515625 -2.859375q-3.453125 0 -6.203125 2.015625q-2.734375 2.015625 -4.046875 5.921875l-1.28125 0q0.859375 -6.390625 4.4375 -9.796875q3.578125 -3.421875 8.921875 -3.421875q5.6875 0 9.5 3.65625q3.8125 3.65625 3.8125 8.625q0 3.5625 -1.65625 7.109375q-2.546875 5.59375 -8.28125 11.828125q-8.59375 9.390625 -10.734375 11.328125l12.21875 0q3.734375 0 5.234375 -0.28125q1.5 -0.28125 2.703125 -1.125q1.203125 -0.84375 2.109375 -2.390625l1.265625 0z" fill-rule="nonzero"/><path fill="#000000" fill-opacity="0.0" d="m2415.8237 359.70718l109.243164 0l0 105.0387l-109.243164 0z" fill-rule="evenodd"/><path fill="#000000" d="m2485.1719 427.54718l-3.265625 9.0l-27.609375 0l0 -1.28125q12.1875 -11.109375 17.140625 -18.140625q4.96875 -7.046875 4.96875 -12.875q0 -4.453125 -2.71875 -7.3125q-2.71875 -2.859375 -6.515625 -2.859375q-3.453125 0 -6.203125 2.015625q-2.734375 2.015625 -4.046875 5.921875l-1.28125 0q0.859375 -6.390625 4.4375 -9.796875q3.578125 -3.421875 8.921875 -3.421875q5.6875 0 9.5 3.65625q3.8125 3.65625 3.8125 8.625q0 3.5625 -1.65625 7.109375q-2.546875 5.59375 -8.28125 11.828125q-8.59375 9.390625 -10.734375 11.328125l12.21875 0q3.734375 0 5.234375 -0.28125q1.5 -0.28125 2.703125 -1.125q1.203125 -0.84375 2.109375 -2.390625l1.265625 0z" fill-rule="nonzero"/><path fill="#000000" fill-opacity="0.0" d="m2033.747 575.61444l109.243286 0l0 105.0387l-109.243286 0z" fill-rule="evenodd"/><path fill="#000000" d="m2103.0952 643.45447l-3.265625 9.0l-27.609375 0l0 -1.28125q12.1875 -11.109375 17.140625 -18.140625q4.96875 -7.046875 4.96875 -12.875q0 -4.453125 -2.71875 -7.3125q-2.71875 -2.859375 -6.515625 -2.859375q-3.453125 0 -6.203125 2.015625q-2.734375 2.015625 -4.046875 5.921875l-1.28125 0q0.859375 -6.390625 4.4375 -9.796875q3.578125 -3.421875 8.921875 -3.421875q5.6875 0 9.5 3.65625q3.8125 3.65625 3.8125 8.625q0 3.5625 -1.65625 7.109375q-2.546875 5.59375 -8.28125 11.828125q-8.59375 9.390625 -10.734375 11.328125l12.21875 0q3.734375 0 5.234375 -0.28125q1.5 -0.28125 2.703125 -1.125q1.203125 -0.84375 2.109375 -2.390625l1.265625 0z" fill-rule="nonzero"/><path fill="#000000" fill-opacity="0.0" d="m2543.1829 591.6631l109.243164 0l0 105.038635l-109.243164 0z" fill-rule="evenodd"/><path fill="#000000" d="m2612.531 659.50305l-3.265625 9.0l-27.609375 0l0 -1.28125q12.1875 -11.109375 17.140625 -18.140625q4.96875 -7.046875 4.96875 -12.875q0 -4.453125 -2.71875 -7.3125q-2.71875 -2.859375 -6.515625 -2.859375q-3.453125 0 -6.203125 2.015625q-2.734375 2.015625 -4.046875 5.921875l-1.28125 0q0.859375 -6.390625 4.4375 -9.796875q3.578125 -3.421875 8.921875 -3.421875q5.6875 0 9.5 3.65625q3.8125 3.65625 3.8125 8.625q0 3.5625 -1.65625 7.109375q-2.546875 5.59375 -8.28125 11.828125q-8.59375 9.390625 -10.734375 11.328125l12.21875 0q3.734375 0 5.234375 -0.28125q1.5 -0.28125 2.703125 -1.125q1.203125 -0.84375 2.109375 -2.390625l1.265625 0z" fill-rule="nonzero"/><path fill="#000000" fill-opacity="0.0" d="m2161.106 801.7679l109.243164 0l0 105.0387l-109.243164 0z" fill-rule="evenodd"/><path fill="#000000" d="m2230.454 869.60785l-3.265625 9.0l-27.609375 0l0 -1.28125q12.1875 -11.109375 17.140625 -18.140625q4.96875 -7.046875 4.96875 -12.875q0 -4.453125 -2.71875 -7.3125q-2.71875 -2.859375 -6.515625 -2.859375q-3.453125 0 -6.203125 2.015625q-2.734375 2.015625 -4.046875 5.921875l-1.28125 0q0.859375 -6.390625 4.4375 -9.796875q3.578125 -3.421875 8.921875 -3.421875q5.6875 0 9.5 3.65625q3.8125 3.65625 3.8125 8.625q0 3.5625 -1.65625 7.109375q-2.546875 5.59375 -8.28125 11.828125q-8.59375 9.390625 -10.734375 11.328125l12.21875 0q3.734375 0 5.234375 -0.28125q1.5 -0.28125 2.703125 -1.125q1.203125 -0.84375 2.109375 -2.390625l1.265625 0z" fill-rule="nonzero"/><path fill="#000000" fill-opacity="0.0" d="m2429.5583 775.4716l109.243164 0l0 105.0387l-109.243164 0z" fill-rule="evenodd"/><path fill="#000000" d="m2498.9065 843.31165l-3.265625 9.0l-27.609375 0l0 -1.28125q12.1875 -11.109375 17.140625 -18.140625q4.96875 -7.046875 4.96875 -12.875q0 -4.453125 -2.71875 -7.3125q-2.71875 -2.859375 -6.515625 -2.859375q-3.453125 0 -6.203125 2.015625q-2.734375 2.015625 -4.046875 5.921875l-1.28125 0q0.859375 -6.390625 4.4375 -9.796875q3.578125 -3.421875 8.921875 -3.421875q5.6875 0 9.5 3.65625q3.8125 3.65625 3.8125 8.625q0 3.5625 -1.65625 7.109375q-2.546875 5.59375 -8.28125 11.828125q-8.59375 9.390625 -10.734375 11.328125l12.21875 0q3.734375 0 5.234375 -0.28125q1.5 -0.28125 2.703125 -1.125q1.203125 -0.84375 2.109375 -2.390625l1.265625 0z" fill-rule="nonzero"/><path fill="#000000" fill-opacity="0.0" d="m2268.85 575.61444l148.47266 0l0 105.0387l-148.47266 0z" fill-rule="evenodd"/><path fill="#000000" d="m2298.8533 634.00134l17.84375 0l0 5.203125l-17.84375 0l0 -5.203125zm28.950928 -23.734375l11.390625 -5.5625l1.125 0l0 39.5q0 3.9375 0.328125 4.90625q0.328125 0.96875 1.359375 1.484375q1.046875 0.515625 4.21875 0.578125l0 1.28125l-17.59375 0l0 -1.28125q3.3125 -0.0625 4.28125 -0.5625q0.96875 -0.5 1.34375 -1.34375q0.375 -0.84375 0.375 -5.0625l0 -25.25q0 -5.109375 -0.34375 -6.546875q-0.234375 -1.109375 -0.875 -1.625q-0.640625 -0.515625 -1.546875 -0.515625q-1.265625 0 -3.546875 1.0625l-0.515625 -1.0625zm59.4375 33.1875l-3.265625 9.0l-27.609375 0l0 -1.28125q12.1875 -11.109375 17.140625 -18.140625q4.96875 -7.046875 4.96875 -12.875q0 -4.453125 -2.71875 -7.3125q-2.71875 -2.859375 -6.515625 -2.859375q-3.453125 0 -6.203125 2.015625q-2.734375 2.015625 -4.046875 5.921875l-1.28125 0q0.859375 -6.390625 4.4375 -9.796875q3.578125 -3.421875 8.921875 -3.421875q5.6875 0 9.5 3.65625q3.8125 3.65625 3.8125 8.625q0 3.5625 -1.65625 7.109375q-2.546875 5.59375 -8.28125 11.828125q-8.59375 9.390625 -10.734375 11.328125l12.21875 0q3.734375 0 5.234375 -0.28125q1.5 -0.28125 2.703125 -1.125q1.203125 -0.84375 2.109375 -2.390625l1.265625 0z" fill-rule="nonzero"/><path fill="#000000" fill-opacity="0.0" d="m451.19815 1139.4343l171.43307 0l0 126.04724l-171.43307 0z" fill-rule="evenodd"/><path fill="#000000" d="m522.6592 1199.7894l14.4375 22.296875q3.859375 5.921875 6.390625 7.578125q2.546875 1.65625 6.671875 1.65625l-0.484375 1.59375l-24.828125 0l0.390625 -1.59375q2.953125 -0.296875 4.171875 -1.40625q1.234375 -1.125 1.234375 -2.546875q0 -1.28125 -0.421875 -2.484375q-0.34375 -0.859375 -2.5 -4.21875l-11.8125 -18.515625l-5.7187195 19.296875q-1.421875 4.640625 -1.421875 6.21875q0 1.640625 1.203125 2.5q1.203125 0.859375 5.9374695 1.15625l-0.6875 1.59375l-23.03122 0l0.546875 -1.59375q3.359375 -0.078125 4.515625 -0.59375q1.71875 -0.78125 2.546875 -1.984375q1.109375 -1.765625 2.75 -7.296875l10.2655945 -35.203125q1.15625 -4.03125 1.15625 -6.484375q0 -1.71875 -1.09375 -2.609375q-1.0937195 -0.90625 -4.2812195 -0.90625l-0.859375 0l0.515625 -1.59375l21.87497 0l-0.421875 1.59375q-2.71875 -0.046875 -4.046875 0.59375q-1.84375 0.90625 -2.703125 2.328125q-0.859375 1.40625 -2.53125 7.078125l-4.515625 14.953125l20.703125 -15.59375q4.125 -3.09375 5.421875 -4.890625q0.765625 -1.125 0.765625 -2.03125q0 -0.765625 -0.796875 -1.5q-0.78125 -0.734375 -2.421875 -0.9375l0.4375 -1.59375l18.640625 0l-0.390625 1.59375q-3.046875 0.515625 -5.140625 1.359375q-2.078125 0.828125 -4.265625 2.28125q-0.640625 0.4375 -8.375 6.359375l-17.828125 13.546875z" fill-rule="nonzero"/><path fill="#000000" d="m563.417 1239.9926q1.40625 1.484375 2.125 2.984375q0.515625 1.03125 1.6875 5.40625l2.515625 -3.78125q1.0 -1.375 2.4375 -2.609375q1.4375 -1.25 2.515625 -1.71875q0.6875 -0.28125 1.515625 -0.28125q1.234375 0 1.96875 0.65625q0.734375 0.65625 0.734375 1.609375q0 1.09375 -0.4375 1.484375q-0.796875 0.71875 -1.828125 0.71875q-0.609375 0 -1.296875 -0.25q-1.34375 -0.46875 -1.796875 -0.46875q-0.6875 0 -1.640625 0.8125q-1.765625 1.484375 -4.234375 5.75l2.34375 9.859375q0.546875 2.25 0.921875 2.703125q0.375 0.4375 0.75 0.4375q0.59375 0 1.40625 -0.65625q1.5625 -1.3125 2.6875 -3.4375l1.0 0.515625q-1.796875 3.375 -4.578125 5.609375q-1.578125 1.265625 -2.671875 1.265625q-1.59375 0 -2.546875 -1.796875q-0.59375 -1.125 -2.484375 -9.625q-4.46875 7.75 -7.171875 9.984375q-1.734375 1.4375 -3.375 1.4375q-1.140625 0 -2.09375 -0.828125q-0.6875 -0.625 -0.6875 -1.6875q0 -0.953125 0.640625 -1.578125q0.625 -0.625 1.546875 -0.625q0.90625 0 1.9375 0.90625q0.75 0.65625 1.15625 0.65625q0.34375 0 0.875 -0.453125q1.359375 -1.09375 3.671875 -4.703125q2.328125 -3.609375 3.03125 -5.203125q-1.765625 -6.96875 -1.90625 -7.359375q-0.671875 -1.859375 -1.734375 -2.625q-1.046875 -0.78125 -3.109375 -0.78125q-0.65625 0 -1.515625 0.046875l0 -1.03125l7.640625 -1.34375z" fill-rule="nonzero"/><path fill="#000000" fill-opacity="0.0" d="m1354.3005 1139.4343l171.4331 0l0 126.04724l-171.4331 0z" fill-rule="evenodd"/><path fill="#000000" d="m1425.7616 1199.7894l14.4375 22.296875q3.859375 5.921875 6.390625 7.578125q2.546875 1.65625 6.671875 1.65625l-0.484375 1.59375l-24.828125 0l0.390625 -1.59375q2.953125 -0.296875 4.171875 -1.40625q1.234375 -1.125 1.234375 -2.546875q0 -1.28125 -0.421875 -2.484375q-0.34375 -0.859375 -2.5 -4.21875l-11.8125 -18.515625l-5.71875 19.296875q-1.421875 4.640625 -1.421875 6.21875q0 1.640625 1.203125 2.5q1.203125 0.859375 5.9375 1.15625l-0.6875 1.59375l-23.03125 0l0.546875 -1.59375q3.359375 -0.078125 4.515625 -0.59375q1.71875 -0.78125 2.546875 -1.984375q1.109375 -1.765625 2.75 -7.296875l10.265625 -35.203125q1.15625 -4.03125 1.15625 -6.484375q0 -1.71875 -1.09375 -2.609375q-1.09375 -0.90625 -4.28125 -0.90625l-0.859375 0l0.515625 -1.59375l21.875 0l-0.421875 1.59375q-2.71875 -0.046875 -4.046875 0.59375q-1.84375 0.90625 -2.703125 2.328125q-0.859375 1.40625 -2.53125 7.078125l-4.515625 14.953125l20.703125 -15.59375q4.125 -3.09375 5.421875 -4.890625q0.765625 -1.125 0.765625 -2.03125q0 -0.765625 -0.796875 -1.5q-0.78125 -0.734375 -2.421875 -0.9375l0.4375 -1.59375l18.640625 0l-0.390625 1.59375q-3.046875 0.515625 -5.140625 1.359375q-2.078125 0.828125 -4.265625 2.28125q-0.640625 0.4375 -8.375 6.359375l-17.828125 13.546875z" fill-rule="nonzero"/><path fill="#000000" d="m1465.7225 1239.9926q0.96875 1.65625 1.34375 3.109375q0.375 1.453125 0.75 5.6875l1.25 14.09375q1.71875 -2.0625 4.984375 -6.53125q1.578125 -2.1875 3.890625 -5.9375q1.40625 -2.28125 1.71875 -3.203125q0.171875 -0.453125 0.171875 -0.9375q0 -0.328125 -0.203125 -0.515625q-0.1875 -0.203125 -1.03125 -0.46875q-0.84375 -0.28125 -1.40625 -1.015625q-0.5625 -0.734375 -0.5625 -1.671875q0 -1.171875 0.6875 -1.890625q0.6875 -0.71875 1.71875 -0.71875q1.265625 0 2.140625 1.046875q0.890625 1.046875 0.890625 2.875q0 2.265625 -1.546875 5.171875q-1.546875 2.90625 -5.953125 8.921875q-4.40625 6.015625 -10.6875 13.125q-4.3125 4.890625 -6.40625 6.15625q-2.09375 1.28125 -3.578125 1.28125q-0.890625 0 -1.5625 -0.671875q-0.671875 -0.671875 -0.671875 -1.5625q0 -1.109375 0.9375 -2.03125q0.921875 -0.921875 2.015625 -0.921875q0.5625 0 0.9375 0.265625q0.234375 0.140625 0.5 0.8125q0.265625 0.671875 0.5 0.90625q0.140625 0.140625 0.34375 0.140625q0.171875 0 0.609375 -0.28125q1.5625 -0.984375 3.65625 -3.09375q2.75 -2.8125 4.078125 -4.59375l-1.609375 -18.15625q-0.40625 -4.484375 -1.203125 -5.453125q-0.796875 -0.984375 -2.6875 -0.984375q-0.609375 0 -2.15625 0.171875l-0.25 -1.0625l8.390625 -2.0625z" fill-rule="nonzero"/><path fill="#000000" fill-opacity="0.0" d="m2257.4043 1139.4343l171.43286 0l0 126.04724l-171.43286 0z" fill-rule="evenodd"/><path fill="#000000" d="m2304.406 1199.7894l14.4375 22.296875q3.859375 5.921875 6.390625 7.578125q2.546875 1.65625 6.671875 1.65625l-0.484375 1.59375l-24.828125 0l0.390625 -1.59375q2.953125 -0.296875 4.171875 -1.40625q1.234375 -1.125 1.234375 -2.546875q0 -1.28125 -0.421875 -2.484375q-0.34375 -0.859375 -2.5 -4.21875l-11.8125 -18.515625l-5.71875 19.296875q-1.421875 4.640625 -1.421875 6.21875q0 1.640625 1.203125 2.5q1.203125 0.859375 5.9375 1.15625l-0.6875 1.59375l-23.03125 0l0.546875 -1.59375q3.359375 -0.078125 4.515625 -0.59375q1.71875 -0.78125 2.546875 -1.984375q1.109375 -1.765625 2.75 -7.296875l10.265625 -35.203125q1.15625 -4.03125 1.15625 -6.484375q0 -1.71875 -1.09375 -2.609375q-1.09375 -0.90625 -4.28125 -0.90625l-0.859375 0l0.515625 -1.59375l21.875 0l-0.421875 1.59375q-2.71875 -0.046875 -4.046875 0.59375q-1.84375 0.90625 -2.703125 2.328125q-0.859375 1.40625 -2.53125 7.078125l-4.515625 14.953125l20.703125 -15.59375q4.125 -3.09375 5.421875 -4.890625q0.765625 -1.125 0.765625 -2.03125q0 -0.765625 -0.796875 -1.5q-0.78125 -0.734375 -2.421875 -0.9375l0.4375 -1.59375l18.640625 0l-0.390625 1.59375q-3.046875 0.515625 -5.140625 1.359375q-2.078125 0.828125 -4.265625 2.28125q-0.640625 0.4375 -8.375 6.359375l-17.828125 13.546875z" fill-rule="nonzero"/><path fill="#000000" d="m2352.4294 1225.18l-9.796875 34.09375q-0.703125 2.546875 -0.703125 3.125q0 0.421875 0.265625 0.71875q0.265625 0.28125 0.671875 0.28125q0.546875 0 1.171875 -0.484375q1.5 -1.1875 3.125 -3.640625l0.859375 0.890625q-2.71875 3.828125 -5.015625 5.34375q-1.6875 1.09375 -3.203125 1.09375q-1.09375 0 -1.828125 -0.734375q-0.71875 -0.75 -0.71875 -1.734375q0 -1.03125 0.90625 -4.234375l7.765625 -26.859375q0.953125 -3.296875 0.953125 -3.78125q0 -0.6875 -0.546875 -1.125q-0.546875 -0.453125 -1.6875 -0.453125q-0.65625 0 -2.015625 0.203125l0 -1.0625l9.796875 -1.640625zm26.39038 14.8125l-5.59375 19.421875l-0.625 2.609375q-0.09375 0.375 -0.09375 0.625q0 0.453125 0.296875 0.796875q0.21875 0.265625 0.5625 0.265625q0.375 0 0.984375 -0.453125q1.109375 -0.84375 2.96875 -3.4375l0.984375 0.6875q-1.984375 2.96875 -4.078125 4.53125q-2.09375 1.5625 -3.859375 1.5625q-1.234375 0 -1.859375 -0.625q-0.609375 -0.609375 -0.609375 -1.78125q0 -1.40625 0.625 -3.6875l0.609375 -2.15625q-3.75 4.90625 -6.90625 6.84375q-2.265625 1.40625 -4.4375 1.40625q-2.09375 0 -3.609375 -1.734375q-1.515625 -1.734375 -1.515625 -4.765625q0 -4.5625 2.734375 -9.609375q2.734375 -5.0625 6.953125 -8.09375q3.28125 -2.40625 6.203125 -2.40625q1.75 0 2.90625 0.921875q1.171875 0.90625 1.765625 3.03125l1.03125 -3.265625l4.5625 -0.6875zm-10.203125 1.484375q-1.828125 0 -3.890625 1.71875q-2.921875 2.4375 -5.203125 7.21875q-2.28125 4.78125 -2.28125 8.65625q0 1.953125 0.96875 3.078125q0.984375 1.125 2.25 1.125q3.109375 0 6.78125 -4.609375q4.890625 -6.125 4.890625 -12.5625q0 -2.4375 -0.953125 -3.53125q-0.9375 -1.09375 -2.5625 -1.09375zm24.96875 -1.484375l-1.96875 6.59375q3.125 -3.671875 5.5625 -5.125q2.453125 -1.46875 5.0 -1.46875q2.546875 0 4.34375 2.03125q1.8125 2.015625 1.8125 5.25q0 6.296875 -5.125 12.8125q-5.125 6.515625 -11.9375 6.515625q-1.4375 0 -2.546875 -0.3125q-1.09375 -0.3125 -2.46875 -1.125l-2.09375 7.390625q-0.625 2.1875 -0.625 2.84375q0 0.625 0.328125 1.0625q0.328125 0.453125 1.0625 0.6875q0.75 0.25 2.96875 0.25l-0.265625 1.0625l-13.484375 0l0.28125 -1.0625q2.671875 -0.109375 3.609375 -0.921875q0.921875 -0.796875 1.953125 -4.4375l7.234375 -25.078125q0.671875 -2.390625 0.671875 -2.953125q0 -0.78125 -0.453125 -1.203125q-0.4375 -0.4375 -1.359375 -0.4375q-0.828125 0 -2.3125 0.203125l0 -1.109375l9.8125 -1.46875zm-6.671875 22.921875q1.78125 2.109375 4.78125 2.109375q1.5 0 3.046875 -0.828125q1.546875 -0.828125 3.015625 -2.453125q1.46875 -1.640625 2.640625 -3.765625q1.1875 -2.140625 2.109375 -5.03125q0.9375 -2.890625 0.9375 -5.734375q0 -2.296875 -1.046875 -3.5q-1.046875 -1.21875 -2.453125 -1.21875q-3.09375 0 -6.109375 3.546875q-3.015625 3.546875 -4.421875 8.296875l-2.5 8.578125z" fill-rule="nonzero"/></g></svg>