<svg height='300px' width='300px'  fill="#000000" xmlns="http://www.w3.org/2000/svg" xmlns:xlink="http://www.w3.org/1999/xlink" version="1.1" x="0px" y="0px" viewBox="0 0 100 100" style="enable-background:new 0 0 100 100;" xml:space="preserve"><path d="M32,41v18c0,9.9,8.1,18,18,18c9.9,0,18-8.1,18-18V41c0-9.9-8.1-18-18-18C40.1,23,32,31.1,32,41z M50,27c7.7,0,14,6.3,14,14  v18c0,7.7-6.3,14-14,14s-14-6.3-14-14V41C36,33.3,42.3,27,50,27z"></path><path d="M50,44c1.1,0,2-0.9,2-2v-6c0-1.1-0.9-2-2-2s-2,0.9-2,2v6C48,43.1,48.9,44,50,44z"></path><path d="M48.6,92.4C49,92.8,49.5,93,50,93s1-0.2,1.4-0.6l5-5c0.8-0.8,0.8-2,0-2.8s-2-0.8-2.8,0L50,88.2l-3.6-3.6  c-0.8-0.8-2-0.8-2.8,0c-0.8,0.8-0.8,2,0,2.8L48.6,92.4z"></path><path d="M48.6,7.6l-5,5c-0.8,0.8-0.8,2,0,2.8C44,15.8,44.5,16,45,16s1-0.2,1.4-0.6l3.6-3.6l3.6,3.6C54,15.8,54.5,16,55,16  s1-0.2,1.4-0.6c0.8-0.8,0.8-2,0-2.8l-5-5C50.6,6.8,49.4,6.8,48.6,7.6z"></path></svg>