<svg version="1.1" viewBox="0.0 0.0 480.0 480.0" fill="none" stroke="none" stroke-linecap="square" stroke-miterlimit="10" xmlns:xlink="http://www.w3.org/1999/xlink" xmlns="http://www.w3.org/2000/svg"><clipPath id="g8b6b25dd82_0_3.0"><path d="m0 0l480.0 0l0 480.0l-480.0 0l0 -480.0z" clip-rule="nonzero"/></clipPath><g clip-path="url(#g8b6b25dd82_0_3.0)"><path fill="#ffffff" d="m0 0l480.0 0l0 480.0l-480.0 0z" fill-rule="evenodd"/><path fill="#000000" fill-opacity="0.0" d="m11.923884 239.33858l215.9055 0" fill-rule="evenodd"/><path stroke="#595959" stroke-width="16.0" stroke-linejoin="round" stroke-linecap="butt" d="m11.923884 239.33858l119.90551 0" fill-rule="evenodd"/><path fill="#595959" stroke="#595959" stroke-width="16.0" stroke-linecap="butt" d="m131.8294 265.7663l72.60956 -26.42772l-72.60956 -26.42772z" fill-rule="evenodd"/><path fill="#000000" fill-opacity="0.0" d="m241.10236 467.63516l0 -215.46455" fill-rule="evenodd"/><path stroke="#595959" stroke-width="16.0" stroke-linejoin="round" stroke-linecap="butt" d="m241.10236 467.63516l0 -119.46457" fill-rule="evenodd"/><path fill="#595959" stroke="#595959" stroke-width="16.0" stroke-linecap="butt" d="m267.5301 348.1706l-26.427734 -72.60956l-26.42772 72.60956z" fill-rule="evenodd"/><path fill="#000000" fill-opacity="0.0" d="m468.0761 238.89764l-215.9055 0" fill-rule="evenodd"/><path stroke="#595959" stroke-width="16.0" stroke-linejoin="round" stroke-linecap="butt" d="m468.0761 238.89764l-119.90552 0" fill-rule="evenodd"/><path fill="#595959" stroke="#595959" stroke-width="16.0" stroke-linecap="butt" d="m348.1706 212.46992l-72.60956 26.42772l72.60956 26.427704z" fill-rule="evenodd"/><path fill="#000000" fill-opacity="0.0" d="m240.22047 11.923884l0 215.9055" fill-rule="evenodd"/><path stroke="#595959" stroke-width="16.0" stroke-linejoin="round" stroke-linecap="butt" d="m240.22047 11.923884l0 119.90551" fill-rule="evenodd"/><path fill="#595959" stroke="#595959" stroke-width="16.0" stroke-linecap="butt" d="m213.79276 131.8294l26.42772 72.60956l26.42772 -72.60956z" fill-rule="evenodd"/></g></svg>