<svg height='300px' width='300px'  fill="#000000" xmlns:dc="http://purl.org/dc/elements/1.1/" xmlns:cc="http://creativecommons.org/ns#" xmlns:rdf="http://www.w3.org/1999/02/22-rdf-syntax-ns#" xmlns:svg="http://www.w3.org/2000/svg" xmlns="http://www.w3.org/2000/svg" xmlns:sodipodi="http://sodipodi.sourceforge.net/DTD/sodipodi-0.dtd" xmlns:inkscape="http://www.inkscape.org/namespaces/inkscape" version="1.1" x="0px" y="0px" viewBox="0 0 100 100"><g transform="translate(0,-952.36218)"><g transform="translate(-703.00006,1765)" style="" fill="#000000"><path d="m 755.99995,-798.63791 c -4.39734,0 -7.99989,3.60259 -7.99989,8 l 0,27.53137 c -1.23859,-2.67721 -3.46123,-5.57102 -6.24991,-6.2812 -3.79413,-1.03006 -8.44152,2.0051 -9.49987,5.53125 -0.53956,1.96541 -0.18782,4.20205 0.87499,6.9375 5.19539,12.49287 11.59199,24.4869 19.37473,33.5937 0.37207,0.42777 0.93305,0.68489 1.49998,0.6875 l 26.99963,0 c 0.42551,-0.004 0.8484,-0.14914 1.18748,-0.40625 2.87871,-2.13258 5.19882,-5.76523 7.12491,-10.09375 1.92608,-4.32852 3.40032,-9.34972 4.15619,-14.25 0.75587,-4.90028 0.75291,-9.48897 -0.3125,-13.5625 -1.02827,-3.93153 -3.80182,-7.20337 -7.93739,-7.6875 -0.97483,-0.004 -2.00416,0.0812 -2.87496,0.2812 -0.51296,-1.22651 -1.23199,-2.27257 -2.12497,-2.90625 -1.49536,-1.06115 -3.0173,-1.39533 -4.24994,-1.375 -1.18341,0.0198 -2.26248,0.45073 -3.21871,1.125 -0.43029,-0.65664 -0.87277,-1.3399 -1.43748,-1.75 -1.48261,-1.0767 -3.0599,-1.375 -4.31244,-1.375 -1.03617,0 -2.03885,0.28735 -2.99996,0.6875 l 0,-16.68762 c -0.0854,-5.35282 -4.30644,-8.01025 -7.99989,-7.99995 z m 0,4 c 2.25057,0 3.99995,1.74941 3.99995,4 l 0,21.00012 c -0.0132,0.90648 0.66895,1.77579 1.55254,1.97858 0.88359,0.2028 1.8765,-0.28207 2.25991,-1.10358 0.44181,-0.91851 2.10607,-1.875 3.18745,-1.875 0.48534,0 1.38584,0.2017 1.96872,0.625 0.58289,0.4233 1.03124,0.91868 1.03124,2.375 0.002,0.88911 0.66937,1.73384 1.53399,1.94106 0.86462,0.20723 1.84257,-0.24311 2.24721,-1.03481 0.81307,-1.62653 1.2488,-1.88949 2.24997,-1.90625 0.27701,-0.005 1.24778,0.17993 1.87497,0.625 0.6272,0.44507 1.09374,0.95672 1.09374,2.375 -0.006,0.77893 0.48772,1.5392 1.20196,1.85003 0.71425,0.31083 1.60723,0.15415 2.17299,-0.38128 0.75837,-0.37383 1.50212,-0.48725 2.46872,-0.46875 2.38448,0.30332 3.62221,1.79764 4.46869,4.78125 0.85426,3.01106 0.88607,7.31492 0.18749,11.84375 -0.69857,4.52883 -2.07915,9.28451 -3.84369,13.25 -1.6549,3.71908 -3.6814,6.62349 -5.46868,8.125 l -25.2184,0 c -7.02017,-8.28155 -13.72377,-20.99834 -18.09351,-31.71875 -0.90971,-2.34145 -0.99168,-3.68593 -0.78123,-4.4375 0.74115,-1.93441 2.81494,-3.02649 4.59368,-2.74995 2.1264,0.80083 2.65325,2.2197 3.56245,3.8437 l 3.9687,7.96875 c 0.40463,0.7917 1.38259,1.24204 2.24721,1.03481 0.86461,-0.20722 1.53219,-1.05195 1.53399,-1.94106 l 0,-36.00012 c 0,-2.25059 1.74938,-4 3.99994,-4 z" style="text-indent:0;text-transform:none;direction:ltr;block-progression:tb;baseline-shift:baseline;color:#000000;enable-background:accumulate;" fill="#000000" fill-opacity="1" stroke="none" marker="none" visibility="visible" display="inline" overflow="visible"></path><path d="m 712.00006,-791.63348 c 0.0205,-0.50327 0.12579,-1.00549 0.5625,-1.40619 l 9,-8.99964 c 0.74635,-0.79177 2.10201,-0.78933 2.85592,-0.0437 0.75391,0.7456 0.74807,2.11696 -0.0122,2.85611 l -5.59372,5.5935 19.1875,0 c 1.10457,0 2,0.89537 2,1.99992 0,1.10456 -0.89543,1.99992 -2,1.99992 l -19.1875,0 5.59375,5.59353 c 0.76024,0.73915 0.76608,2.11052 0.0122,2.85612 -0.75391,0.7456 -2.12519,0.7246 -2.85592,-0.0437 l -9,-8.99964 c -0.41571,-0.42225 -0.54569,-0.85866 -0.56253,-1.40623 z" style="text-indent:0;text-transform:none;direction:ltr;block-progression:tb;baseline-shift:baseline;color:#000000;enable-background:accumulate;" fill="#000000" fill-opacity="1" stroke="none" marker="none" visibility="visible" display="inline" overflow="visible"></path></g></g></svg>