<svg version="1.1" viewBox="0.0 0.0 480.0 480.0" fill="none" stroke="none" stroke-linecap="square" stroke-miterlimit="10" xmlns:xlink="http://www.w3.org/1999/xlink" xmlns="http://www.w3.org/2000/svg"><clipPath id="p.0"><path d="m0 0l480.0 0l0 480.0l-480.0 0l0 -480.0z" clip-rule="nonzero"/></clipPath><g clip-path="url(#p.0)"><path fill="#ffffff" d="m0 0l480.0 0l0 480.0l-480.0 0z" fill-rule="evenodd"/><path fill="#000000" fill-opacity="0.0" d="m107.96588 363.87402l0 -247.74805" fill-rule="evenodd"/><path stroke="#595959" stroke-width="16.0" stroke-linejoin="round" stroke-linecap="butt" d="m107.96588 363.87402l0 -151.74803" fill-rule="evenodd"/><path fill="#595959" stroke="#595959" stroke-width="16.0" stroke-linecap="butt" d="m134.3936 212.12598l-26.42772 -72.60956l-26.42772 72.60956z" fill-rule="evenodd"/><path fill="#000000" fill-opacity="0.0" d="m240.0 363.87402l0 -247.74805" fill-rule="evenodd"/><path stroke="#595959" stroke-width="16.0" stroke-linejoin="round" stroke-linecap="butt" d="m240.0 363.87402l0 -151.74803" fill-rule="evenodd"/><path fill="#595959" stroke="#595959" stroke-width="16.0" stroke-linecap="butt" d="m266.4277 212.12598l-26.427704 -72.60956l-26.42772 72.60956z" fill-rule="evenodd"/><path fill="#000000" fill-opacity="0.0" d="m372.13647 363.87402l0 -247.74805" fill-rule="evenodd"/><path stroke="#595959" stroke-width="16.0" stroke-linejoin="round" stroke-linecap="butt" d="m372.13647 363.87402l0 -151.74803" fill-rule="evenodd"/><path fill="#595959" stroke="#595959" stroke-width="16.0" stroke-linecap="butt" d="m398.5642 212.12598l-26.427734 -72.60956l-26.427704 72.60956z" fill-rule="evenodd"/></g></svg>